<svg width="20" height="20" viewBox="0 0 20 20" fill="none" xmlns="http://www.w3.org/2000/svg">
<path d="M9.1665 16.875V17.7083H10.8332V16.875H9.1665ZM10.8332 7.70829C10.8332 6.21298 10.6626 4.81084 10.3774 3.81262C10.252 3.37352 10.1168 3.06674 9.99984 2.87187C9.88289 3.06674 9.74769 3.37352 9.62223 3.81262C9.33707 4.81084 9.1665 6.21298 9.1665 7.70829C9.1665 9.2036 9.33707 10.6057 9.62223 11.604C9.74756 12.0426 9.88297 12.349 9.99984 12.5439C10.1167 12.349 10.2521 12.0426 10.3774 11.604C10.6626 10.6057 10.8332 9.2036 10.8332 7.70829ZM12.4998 17.7083C12.4998 18.1503 12.3241 18.5741 12.0116 18.8867C11.699 19.1992 11.2752 19.375 10.8332 19.375H9.1665C8.72448 19.375 8.30068 19.1992 7.98812 18.8867C7.67556 18.5741 7.49984 18.1503 7.49984 17.7083V16.875C7.49984 16.4329 7.67556 16.0091 7.98812 15.6966C8.30068 15.384 8.72448 15.2083 9.1665 15.2083H10.8332C11.2752 15.2083 11.699 15.384 12.0116 15.6966C12.3241 16.0091 12.4998 16.4329 12.4998 16.875V17.7083ZM12.4998 7.70829C12.4998 9.15232 12.3499 10.5684 12.071 11.7057C12.3416 11.4412 12.6039 11.1298 12.8481 10.7731C13.6739 9.56703 14.1665 8.06156 14.1665 6.87496C14.1665 5.76989 13.7272 4.7104 12.9458 3.929C12.6433 3.62653 12.2993 3.37537 11.9269 3.18111C11.9446 3.23832 11.9631 3.29586 11.9798 3.35445C12.3197 4.54414 12.4998 6.10955 12.4998 7.70829ZM5.83317 6.87496C5.83317 8.06156 6.32581 9.56703 7.15153 10.7731C7.39567 11.1296 7.65743 11.4413 7.9279 11.7057C7.64899 10.5684 7.49984 9.15225 7.49984 7.70829C7.49984 6.10955 7.67995 4.54414 8.01986 3.35445C8.03658 3.29594 8.0543 3.23825 8.07194 3.18111C7.69981 3.37532 7.35617 3.6267 7.05387 3.929C6.27247 4.7104 5.83317 5.76989 5.83317 6.87496ZM15.8332 6.87496C15.8332 8.44989 15.2072 10.2778 14.2235 11.7146C13.2535 13.1314 11.7838 14.375 9.99984 14.375C8.21584 14.375 6.74621 13.1314 5.7762 11.7146C4.7925 10.2778 4.1665 8.44989 4.1665 6.87496C4.1665 5.32786 4.78071 3.84376 5.87467 2.7498C6.96864 1.65583 8.45274 1.04163 9.99984 1.04163C11.5469 1.04163 13.031 1.65583 14.125 2.7498C15.219 3.84376 15.8332 5.32786 15.8332 6.87496Z" fill="white" fill-opacity="0.95"/>
</svg>
